<svg t="1685089354045" class="icon" viewBox="0 0 1024 1024" version="1.1" xmlns="http://www.w3.org/2000/svg" p-id="3942" width="64" height="64"><path d="M869.888 439.686737L929.684211 457.000421l-55.754106 16.303158 38.130527 15.898947-40.151579 7.491369-2.021053-56.993684z" fill="#1A1A1A" p-id="3943"></path><path d="M309.045895 328.771368c-8.043789 101.672421 114.256842 264.690526 235.115789 277.652211 47.238737 5.039158 116.547368-39.397053 112.949895-86.568421-10.078316-131.557053-213.962105-138.186105-348.065684-191.08379z" fill="#2B2222" p-id="3944"></path><path d="M94.315789 705.077895c132.325053 146.917053 370.661053 213.126737 543.973053 142.026105C782.888421 787.779368 876.638316 596.399158 876.705684 444.631579c0-103.949474-104.501895-222.181053-259.22021-173.433263-69.497263 21.881263-122.516211 91.418947-167.302737 154.597052C350.100211 558.457263 261.349053 647.599158 94.315789 705.077895z" fill="#2B2222" p-id="3945"></path><path d="M193.872842 408.212211c8.407579 101.658947 155.338105 243.065263 276.709053 236.557473 47.440842-2.56 108.705684-57.465263 97.562947-103.464421-31.083789-128.269474-233.418105-102.265263-374.272-133.093052z" fill="#2B2222" p-id="3946"></path><path d="M529.421474 328.165053c42.064842 3.759158 116.345263 17.017263 174.955789 20.62821 48.101053 2.977684 104.96 1.697684 144.599579 0.87579 28.712421 49.017263 31.043368 101.281684 22.945684 147.024842-84.547368 14.093474-147.509895 3.705263-216.481684-18.256842-62.746947-19.968-124.995368-50.081684-170.105263-100.244211 20.129684-28.496842 26.960842-34.654316 44.085895-50.027789z" fill="#EC643D" p-id="3947" data-spm-anchor-id="a313x.7781069.0.i22" class=""></path><path d="M841.741474 447.932632c-8.326737 21.733053-37.362526 29.978947-64.87579 18.432-27.513263-11.560421-43.061895-38.534737-34.748631-60.254316 8.313263-21.733053 37.362526-29.992421 64.862315-18.432 27.513263 11.533474 43.075368 38.521263 34.762106 60.254316z" fill="#FFFFFF" p-id="3948"></path><path d="M838.871579 445.318737c-6.265263 16.397474-26.947368 23.134316-46.214737 15.050105-19.267368-8.084211-29.776842-27.944421-23.511579-44.328421 6.278737-16.410947 26.987789-23.147789 46.241684-15.077053 19.267368 8.097684 29.776842 27.944421 23.484632 44.355369z" fill="#1A1A1A" p-id="3949"></path><path d="M831.124211 424.272842c-2.223158 5.793684-9.269895 8.286316-15.764211 5.551158-6.480842-2.721684-9.930105-9.633684-7.706947-15.413895 2.223158-5.807158 9.256421-8.299789 15.737263-5.578105 6.494316 2.721684 9.970526 9.633684 7.733895 15.440842z" fill="#FFFFFF" p-id="3950"></path><path d="M838.723368 416.848842c-10.576842-6.561684-19.361684-15.589053-29.884631-22.231579-10.132211-6.817684-20.601263-13.392842-31.959579-17.973895-4.985263-1.697684-9.970526-3.408842-14.928842-5.200842-3.395368 0.808421 0.646737-2.209684 1.347368-3.328l10.293895-11.439158c4.446316 0.579368 8.394105 3.031579 12.732632 4.042106 11.722105 4.810105 22.339368 11.870316 32.943157 18.701473 10.415158 7.006316 20.143158 15.036632 30.652632 21.908211 3.098947 0.565895 2.950737 2.721684 0.538947 4.042105l-11.735579 11.479579z" fill="#1A1A1A" p-id="3951"></path><path d="M538.138947 384.350316c-20.277895-0.714105-43.883789 1.805474-59.418947-16.882527a158.976 158.976 0 0 1-32-53.773473c-1.253053-14.713263-1.266526-32.700632-14.753684-39.68-15.575579-9.862737-33.967158-8.448-50.997895-11.156211-32.134737-2.142316-62.760421 11.210105-92.698947 23.013053-14.228211 5.564632-31.717053 4.540632-42.132211-9.647158-8.124632-9.269895-13.069474-21.288421-18.189474-32.794947-7.504842-7.437474-7.949474-19.024842 2.182737-22.096842l18.714948-12.638316c9.593263 20.655158 16.882526 47.211789 37.106526 56.414316 20.749474 5.254737 39.989895-8.811789 59.553684-14.497685 27.755789-10.509474 57.384421-12.085895 86.029474-6.534737 16.491789 1.738105 36.459789 8.852211 41.445053 30.046316 1.468632 18.364632 4.783158 36.257684 15.804631 50.054737 10.442105 18.647579 25.734737 36.446316 45.824 37.200842 6.642526 2.613895 28.402526-2.694737 26.004211 3.664842l-22.487579 19.30779z" fill="#EC643D" p-id="3952" data-spm-anchor-id="a313x.7781069.0.i24" class="selected"></path><path d="M524.544 374.649263c-14.686316-9.552842-32.687158-17.973895-38.938947-35.557052-4.136421-11.776-8.394105-23.673263-10.469053-35.988211-1.805474-16.734316 0.053895-33.603368-0.781474-50.364632 2.694737-10.711579-4.271158-20.560842-15.036631-22.541473-14.093474-4.082526-29.022316-3.557053-43.493053-5.537684-13.298526-0.727579-29.143579 2.155789-39.706947-7.814737-8.003368-9.485474-11.452632-21.786947-15.427369-33.293474-0.902737-6.022737 7.114105-6.251789 10.590316-9.808842L390.359579 161.684211c1.360842 11.210105 6.305684 21.652211 10.711579 31.932631 6.076632 10.778947 19.402105 11.304421 30.396631 11.021474 17.246316 1.091368 34.748632 1.428211 51.631158 5.241263 10.630737 2.479158 23.174737 9.970526 22.056421 22.325895 0.714105 25.559579-3.530105 52.062316 5.281685 76.705684 3.637895 11.021474 7.235368 22.918737 17.003789 30.248421 7.356632 6.790737 16.586105 11.237053 24.764632 16.653474-6.696421 5.834105-15.252211 10.226526-22.662737 15.535158l-4.985263 3.301052z" fill="#EC643D" p-id="3953" data-spm-anchor-id="a313x.7781069.0.i23" class="selected"></path></svg>
